<svg width="615.6px" height="120.8px" xmlns="http://www.w3.org/2000/svg" viewBox="-57.7874816894531 14.600000000000001 615.5749633789062 120.8" style="background: rgba(0, 0, 0, 0)" preserveAspectRatio="xMidYMid"><defs><linearGradient id="editing-gradient-gradient" x1="0" x2="1" y1="0.5" y2="0.5" gradientUnits="objectBoundingBox"><stop offset="0" stop-color="#51b3e6"></stop><stop offset="1" stop-color="#ff00ff"></stop></linearGradient></defs><g><g transform="matrix(1.4,0,0,1.4,-30.3,157.6)"><path d="M 1.1 -41.8 L -12.8 -41.8 L -4.7 -84.1 L 9.4 -84.1 L 1.1 -41.8 Z M 56.9 -40.5 L 56.9 -40.5 L 56.9 -40.5 Q 49.1 -40.5 49.1 -46.6 L 49.1 -46.6 L 49.1 -46.6 Q 49.1 -49.2 50.2 -54.3 L 50.2 -54.3 L 50.2 -54.3 Q 51.4 -59.4 51.7 -61.4 L 51.7 -61.4 L 51.7 -61.4 Q 52.6 -66.1 52.6 -67.6 L 52.6 -67.6 L 52.6 -67.6 Q 52.6 -70.8 50.2 -70.8 L 50.2 -70.8 L 50.2 -70.8 Q 48.6 -70.8 47.1 -68.6 L 47.1 -68.6 L 47.1 -68.6 Q 45.5 -66.4 44.8 -62 L 44.8 -62 L 40.9 -41.8 L 28.4 -40.5 L 31.8 -58 L 31.8 -58 Q 32.4 -60.8 32.9 -64.1 L 32.9 -64.1 L 32.9 -64.1 Q 33.4 -67.4 33.4 -67.9 L 33.4 -67.9 L 33.4 -67.9 Q 33.4 -70.8 31.3 -70.8 L 31.3 -70.8 L 31.3 -70.8 Q 29.8 -70.8 28.2 -68.6 L 28.2 -68.6 L 28.2 -68.6 Q 26.6 -66.5 25.7 -62 L 25.7 -62 L 21.8 -41.8 L 9.2 -40.5 L 15.9 -74.5 L 26.3 -75.7 L 25.2 -69.3 L 25.2 -69.3 Q 26.9 -72.7 30 -74.2 L 30 -74.2 L 30 -74.2 Q 33 -75.7 37.8 -75.7 L 37.8 -75.7 L 37.8 -75.7 Q 40.6 -75.7 42.4 -74.4 L 42.4 -74.4 L 42.4 -74.4 Q 44.2 -73.1 44.8 -70.9 L 44.8 -70.9 L 44.8 -70.9 Q 45.8 -73.1 48.6 -74.4 L 48.6 -74.4 L 48.6 -74.4 Q 51.4 -75.7 54.8 -75.7 L 54.8 -75.7 L 54.8 -75.7 Q 58.3 -75.7 60 -75 L 60 -75 L 60 -75 Q 61.7 -74.3 62.7 -73.1 L 62.7 -73.1 L 62.7 -73.1 Q 64.4 -70.8 64.4 -66.7 L 64.4 -66.7 L 64.4 -66.7 Q 64.4 -62.7 62.7 -54.3 L 62.7 -54.3 L 62.7 -54.3 Q 61.8 -50.2 61.8 -48.7 L 61.8 -48.7 L 61.8 -48.7 Q 61.8 -47.2 62.6 -46.3 L 62.6 -46.3 L 62.6 -46.3 Q 63.5 -45.4 64.8 -45.3 L 64.8 -45.3 L 64.8 -45.3 Q 64.2 -43.1 61.9 -41.8 L 61.9 -41.8 L 61.9 -41.8 Q 59.7 -40.5 56.9 -40.5 Z M 72.5 -43.7 L 72.5 -43.7 L 72.5 -43.7 Q 71 -45.4 70.3 -48 L 70.3 -48 L 70.3 -48 Q 69.7 -50.7 69.7 -54.9 L 69.7 -54.9 L 69.7 -54.9 Q 69.7 -59.2 71.1 -63.1 L 71.1 -63.1 L 71.1 -63.1 Q 72.6 -67 75.3 -69.9 L 75.3 -69.9 L 75.3 -69.9 Q 80.8 -75.7 89.9 -75.7 L 89.9 -75.7 L 89.9 -75.7 Q 93.1 -75.7 95.5 -74.7 L 95.5 -74.7 L 106.5 -75.7 L 101.7 -50.8 L 101.7 -50.8 Q 101.5 -50 101.5 -48.6 L 101.5 -48.6 L 101.5 -48.6 Q 101.5 -47.2 102.4 -46.3 L 102.4 -46.3 L 102.4 -46.3 Q 103.3 -45.4 104.5 -45.3 L 104.5 -45.3 L 104.5 -45.3 Q 103.9 -43.1 101.6 -41.8 L 101.6 -41.8 L 101.6 -41.8 Q 99.2 -40.5 96.6 -40.5 L 96.6 -40.5 L 96.6 -40.5 Q 94 -40.5 92.2 -41.5 L 92.2 -41.5 L 92.2 -41.5 Q 90.5 -42.5 89.9 -44.2 L 89.9 -44.2 L 89.9 -44.2 Q 88.9 -42.6 86.7 -41.6 L 86.7 -41.6 L 86.7 -41.6 Q 84.6 -40.5 81.7 -40.5 L 81.7 -40.5 L 81.7 -40.5 Q 78.7 -40.5 76.4 -41.3 L 76.4 -41.3 L 76.4 -41.3 Q 74 -42.1 72.5 -43.7 Z M 86 -69.7 L 86 -69.7 L 86 -69.7 Q 85.3 -68.6 84.6 -66.6 L 84.6 -66.6 L 84.6 -66.6 Q 84 -64.7 82.9 -59.5 L 82.9 -59.5 L 82.9 -59.5 Q 81.9 -54.2 81.9 -50.5 L 81.9 -50.5 L 81.9 -50.5 Q 81.9 -46.8 82.5 -45.7 L 82.5 -45.7 L 82.5 -45.7 Q 83 -44.6 84.1 -44.6 L 84.1 -44.6 L 84.1 -44.6 Q 86.1 -44.6 87.6 -46.6 L 87.6 -46.6 L 87.6 -46.6 Q 89.1 -48.5 89.7 -52 L 89.7 -52 L 93.1 -70.8 L 93.1 -70.8 Q 91.7 -71.9 90.2 -71.9 L 90.2 -71.9 L 90.2 -71.9 Q 88.6 -71.9 87.7 -71.4 L 87.7 -71.4 L 87.7 -71.4 Q 86.7 -70.9 86 -69.7 Z M 114.2 -68.6 L 114.2 -68.6 L 114.2 -68.6 Q 116.4 -71.6 119.7 -73.7 L 119.7 -73.7 L 119.7 -73.7 Q 123 -75.7 127 -75.7 L 127 -75.7 L 127 -75.7 Q 131 -75.7 133 -74.5 L 133 -74.5 L 145.5 -75.7 L 141.1 -51.2 L 141.1 -51.2 Q 138.9 -38.6 134.2 -33.7 L 134.2 -33.7 L 134.2 -33.7 Q 129.6 -29 120.8 -29 L 120.8 -29 L 120.8 -29 Q 114.1 -29 110.2 -31.1 L 110.2 -31.1 L 110.2 -31.1 Q 106.4 -33.2 106.4 -36.8 L 106.4 -36.8 L 106.4 -36.8 Q 106.4 -39.4 108.4 -40.9 L 108.4 -40.9 L 108.4 -40.9 Q 110.4 -42.4 113.4 -42.4 L 113.4 -42.4 L 113.4 -42.4 Q 116.1 -42.4 118.2 -41.2 L 118.2 -41.2 L 118.2 -41.2 Q 119.4 -40.5 120 -39.6 L 120 -39.6 L 120 -39.6 Q 118.5 -38.4 118.5 -36.3 L 118.5 -36.3 L 118.5 -36.3 Q 118.5 -33.5 121 -33.5 L 121 -33.5 L 121 -33.5 Q 125.3 -33.5 127.8 -43.6 L 127.8 -43.6 L 127.8 -43.6 Q 128.5 -46.4 129 -49.1 L 129 -49.1 L 129 -49.1 Q 126.2 -45.6 119.6 -45.6 L 119.6 -45.6 L 119.6 -45.6 Q 115.1 -45.6 112.5 -47.8 L 112.5 -47.8 L 112.5 -47.8 Q 109.8 -50 109.8 -55.1 L 109.8 -55.1 L 109.8 -55.1 Q 109.8 -58.3 110.9 -61.9 L 110.9 -61.9 L 110.9 -61.9 Q 112 -65.5 114.2 -68.6 Z M 122.5 -54.9 L 122.5 -54.9 L 122.5 -54.9 Q 122.5 -50.5 124.8 -50.5 L 124.8 -50.5 L 124.8 -50.5 Q 126.3 -50.5 127.8 -52.2 L 127.8 -52.2 L 127.8 -52.2 Q 128.9 -53.5 129.4 -55.5 L 129.4 -55.5 L 132.6 -72 L 132.6 -72 Q 132.3 -72 132 -72.2 L 132 -72.2 L 132 -72.2 Q 131.4 -72.4 130.5 -72.4 L 130.5 -72.4 L 130.5 -72.4 Q 126.6 -72.4 124.3 -66 L 124.3 -66 L 124.3 -66 Q 122.5 -61 122.5 -54.9 Z M 173.9 -52.6 L 173.9 -52.6 L 173.9 -52.6 Q 175.5 -51.6 175.5 -49.2 L 175.5 -49.2 L 175.5 -49.2 Q 175.5 -46.8 174.3 -45.2 L 174.3 -45.2 L 174.3 -45.2 Q 173.1 -43.7 171.1 -42.7 L 171.1 -42.7 L 171.1 -42.7 Q 167 -40.5 162.6 -40.5 L 162.6 -40.5 L 162.6 -40.5 Q 158.2 -40.5 155.6 -41.5 L 155.6 -41.5 L 155.6 -41.5 Q 153 -42.5 151.3 -44.3 L 151.3 -44.3 L 151.3 -44.3 Q 147.9 -47.6 147.9 -53.9 L 147.9 -53.9 L 147.9 -53.9 Q 147.9 -63.5 153.1 -69.4 L 153.1 -69.4 L 153.1 -69.4 Q 158.7 -75.7 168.5 -75.7 L 168.5 -75.7 L 168.5 -75.7 Q 174.6 -75.7 177.6 -73.2 L 177.6 -73.2 L 177.6 -73.2 Q 179.9 -71.3 179.9 -68.1 L 179.9 -68.1 L 179.9 -68.1 Q 179.9 -56.9 160.4 -56.9 L 160.4 -56.9 L 160.4 -56.9 Q 160.2 -55.2 160.2 -53.8 L 160.2 -53.8 L 160.2 -53.8 Q 160.2 -50.8 161.5 -49.7 L 161.5 -49.7 L 161.5 -49.7 Q 162.8 -48.6 165.2 -48.6 L 165.2 -48.6 L 165.2 -48.6 Q 167.6 -48.6 170.2 -49.7 L 170.2 -49.7 L 170.2 -49.7 Q 172.8 -50.8 173.9 -52.6 Z M 160.9 -59.6 L 160.9 -59.6 L 160.9 -59.6 Q 165.4 -59.6 168 -62.4 L 168 -62.4 L 168 -62.4 Q 170.6 -65.1 170.6 -69.4 L 170.6 -69.4 L 170.6 -69.4 Q 170.6 -70.9 170.1 -71.7 L 170.1 -71.7 L 170.1 -71.7 Q 169.6 -72.5 168.5 -72.5 L 168.5 -72.5 L 168.5 -72.5 Q 167.4 -72.5 166.5 -72.1 L 166.5 -72.1 L 166.5 -72.1 Q 165.5 -71.6 164.6 -70.2 L 164.6 -70.2 L 164.6 -70.2 Q 162.2 -67 160.9 -59.6 Z M 221.1 -62.4 L 234.1 -63.6 L 234.1 -63.6 Q 229.5 -53.5 229.5 -41.8 L 229.5 -41.8 L 229.5 -41.8 Q 227.7 -40.5 225.2 -40.5 L 225.2 -40.5 L 225.2 -40.5 Q 222.7 -40.5 221.1 -41.7 L 221.1 -41.7 L 221.1 -41.7 Q 219.5 -42.9 219.2 -44.1 L 219.2 -44.1 L 219.2 -44.1 Q 217.6 -42.5 215 -41.5 L 215 -41.5 L 215 -41.5 Q 212.4 -40.5 209.6 -40.5 L 209.6 -40.5 L 209.6 -40.5 Q 206.9 -40.5 204.5 -41.4 L 204.5 -41.4 L 204.5 -41.4 Q 202.1 -42.3 200.2 -44.3 L 200.2 -44.3 L 200.2 -44.3 Q 196.1 -48.7 196.1 -56.9 L 196.1 -56.9 L 196.1 -56.9 Q 196.1 -69.7 203 -77.4 L 203 -77.4 L 203 -77.4 Q 210 -85.3 222.5 -85.3 L 222.5 -85.3 L 222.5 -85.3 Q 231.1 -85.3 234.2 -80.9 L 234.2 -80.9 L 234.2 -80.9 Q 235.2 -79.5 235.2 -77.8 L 235.2 -77.8 L 235.2 -77.8 Q 235.2 -76.1 234.4 -74.6 L 234.4 -74.6 L 234.4 -74.6 Q 233.7 -73.2 232.5 -72 L 232.5 -72 L 232.5 -72 Q 229.8 -69.5 226.4 -69.5 L 226.4 -69.5 L 226.4 -69.5 Q 225 -69.5 223.8 -69.9 L 223.8 -69.9 L 223.8 -69.9 Q 224 -71.8 224 -74.1 L 224 -74.1 L 224 -74.1 Q 224 -76.3 223.9 -77.3 L 223.9 -77.3 L 223.9 -77.3 Q 223.7 -78.4 223.3 -79.2 L 223.3 -79.2 L 223.3 -79.2 Q 222.5 -80.9 220.7 -80.9 L 220.7 -80.9 L 220.7 -80.9 Q 218.8 -80.9 216.8 -79 L 216.8 -79 L 216.8 -79 Q 214.8 -77 213.2 -73.8 L 213.2 -73.8 L 213.2 -73.8 Q 209.7 -66.7 209.7 -58 L 209.7 -58 L 209.7 -58 Q 209.7 -54 211.2 -51.2 L 211.2 -51.2 L 211.2 -51.2 Q 212.9 -48.2 215.8 -48.2 L 215.8 -48.2 L 215.8 -48.2 Q 216.9 -48.2 217.8 -48.7 L 217.8 -48.7 L 217.8 -48.7 Q 218.7 -49.2 219.1 -49.6 L 219.1 -49.6 L 221.1 -62.4 Z M 240 -43.7 L 240 -43.7 L 240 -43.7 Q 238.5 -45.4 237.8 -48 L 237.8 -48 L 237.8 -48 Q 237.1 -50.7 237.1 -54.9 L 237.1 -54.9 L 237.1 -54.9 Q 237.1 -59.2 238.6 -63.1 L 238.6 -63.1 L 238.6 -63.1 Q 240.1 -67 242.8 -69.9 L 242.8 -69.9 L 242.8 -69.9 Q 248.3 -75.7 257.4 -75.7 L 257.4 -75.7 L 257.4 -75.7 Q 260.6 -75.7 263 -74.7 L 263 -74.7 L 273.9 -75.7 L 269.2 -50.8 L 269.2 -50.8 Q 269 -50 269 -48.6 L 269 -48.6 L 269 -48.6 Q 269 -47.2 269.9 -46.3 L 269.9 -46.3 L 269.9 -46.3 Q 270.7 -45.4 272 -45.3 L 272 -45.3 L 272 -45.3 Q 271.4 -43.1 269 -41.8 L 269 -41.8 L 269 -41.8 Q 266.7 -40.5 264.1 -40.5 L 264.1 -40.5 L 264.1 -40.5 Q 261.5 -40.5 259.7 -41.5 L 259.7 -41.5 L 259.7 -41.5 Q 257.9 -42.5 257.4 -44.2 L 257.4 -44.2 L 257.4 -44.2 Q 256.4 -42.6 254.2 -41.6 L 254.2 -41.6 L 254.2 -41.6 Q 252.1 -40.5 249.1 -40.5 L 249.1 -40.5 L 249.1 -40.5 Q 246.2 -40.5 243.9 -41.3 L 243.9 -41.3 L 243.9 -41.3 Q 241.5 -42.1 240 -43.7 Z M 253.5 -69.7 L 253.5 -69.7 L 253.5 -69.7 Q 252.8 -68.6 252.1 -66.6 L 252.1 -66.6 L 252.1 -66.6 Q 251.5 -64.7 250.4 -59.5 L 250.4 -59.5 L 250.4 -59.5 Q 249.4 -54.2 249.4 -50.5 L 249.4 -50.5 L 249.4 -50.5 Q 249.4 -46.8 249.9 -45.7 L 249.9 -45.7 L 249.9 -45.7 Q 250.5 -44.6 251.5 -44.6 L 251.5 -44.6 L 251.5 -44.6 Q 253.6 -44.6 255.1 -46.6 L 255.1 -46.6 L 255.1 -46.6 Q 256.6 -48.5 257.2 -52 L 257.2 -52 L 260.6 -70.8 L 260.6 -70.8 Q 259.2 -71.9 257.7 -71.9 L 257.7 -71.9 L 257.7 -71.9 Q 256.1 -71.9 255.2 -71.4 L 255.2 -71.4 L 255.2 -71.4 Q 254.2 -70.9 253.5 -69.7 Z M 292.7 -45.3 L 292.7 -45.3 L 292.7 -45.3 Q 290.7 -40.5 284.4 -40.5 L 284.4 -40.5 L 284.4 -40.5 Q 281.2 -40.5 279.1 -42.8 L 279.1 -42.8 L 279.1 -42.8 Q 277.5 -44.6 277.5 -46.8 L 277.5 -46.8 L 277.5 -46.8 Q 277.5 -51.6 279.7 -62 L 279.7 -62 L 284.4 -86.6 L 297.4 -87.9 L 291.2 -55.5 L 291.2 -55.5 Q 290.1 -50.8 290.1 -49.1 L 290.1 -49.1 L 290.1 -49.1 Q 290.1 -45.5 292.7 -45.3 Z M 313.4 -45.3 L 313.4 -45.3 L 313.4 -45.3 Q 311.4 -40.5 305.1 -40.5 L 305.1 -40.5 L 305.1 -40.5 Q 301.9 -40.5 299.9 -42.8 L 299.9 -42.8 L 299.9 -42.8 Q 298.2 -44.6 298.2 -46.8 L 298.2 -46.8 L 298.2 -46.8 Q 298.2 -51.6 300.4 -62 L 300.4 -62 L 305.1 -86.6 L 318.1 -87.9 L 311.9 -55.5 L 311.9 -55.5 Q 310.8 -50.8 310.8 -49.1 L 310.8 -49.1 L 310.8 -49.1 Q 310.8 -45.5 313.4 -45.3 Z M 344.8 -52.6 L 344.8 -52.6 L 344.8 -52.6 Q 346.4 -51.6 346.4 -49.2 L 346.4 -49.2 L 346.4 -49.2 Q 346.4 -46.8 345.2 -45.2 L 345.2 -45.2 L 345.2 -45.2 Q 344 -43.7 342 -42.7 L 342 -42.7 L 342 -42.7 Q 337.9 -40.5 333.5 -40.5 L 333.5 -40.5 L 333.5 -40.5 Q 329 -40.5 326.5 -41.5 L 326.5 -41.5 L 326.5 -41.5 Q 323.9 -42.5 322.1 -44.3 L 322.1 -44.3 L 322.1 -44.3 Q 318.7 -47.6 318.7 -53.9 L 318.7 -53.9 L 318.7 -53.9 Q 318.7 -63.5 324 -69.4 L 324 -69.4 L 324 -69.4 Q 329.6 -75.7 339.4 -75.7 L 339.4 -75.7 L 339.4 -75.7 Q 345.5 -75.7 348.5 -73.2 L 348.5 -73.2 L 348.5 -73.2 Q 350.7 -71.3 350.7 -68.1 L 350.7 -68.1 L 350.7 -68.1 Q 350.7 -56.9 331.3 -56.9 L 331.3 -56.9 L 331.3 -56.9 Q 331 -55.2 331 -53.8 L 331 -53.8 L 331 -53.8 Q 331 -50.8 332.3 -49.7 L 332.3 -49.7 L 332.3 -49.7 Q 333.7 -48.6 336.1 -48.6 L 336.1 -48.6 L 336.1 -48.6 Q 338.5 -48.6 341.1 -49.7 L 341.1 -49.7 L 341.1 -49.7 Q 343.7 -50.8 344.8 -52.6 Z M 331.7 -59.6 L 331.7 -59.6 L 331.7 -59.6 Q 336.3 -59.6 338.9 -62.4 L 338.9 -62.4 L 338.9 -62.4 Q 341.5 -65.1 341.5 -69.4 L 341.5 -69.4 L 341.5 -69.4 Q 341.5 -70.9 341 -71.7 L 341 -71.7 L 341 -71.7 Q 340.4 -72.5 339.4 -72.5 L 339.4 -72.5 L 339.4 -72.5 Q 338.3 -72.5 337.3 -72.1 L 337.3 -72.1 L 337.3 -72.1 Q 336.4 -71.6 335.4 -70.2 L 335.4 -70.2 L 335.4 -70.2 Q 333.1 -67 331.7 -59.6 Z M 373 -59.8 L 373 -59.8 L 373 -59.8 Q 375.3 -63.9 375.3 -68.1 L 375.3 -68.1 L 375.3 -68.1 Q 375.3 -70.8 373.3 -70.8 L 373.3 -70.8 L 373.3 -70.8 Q 371.7 -70.8 370.1 -68.2 L 370.1 -68.2 L 370.1 -68.2 Q 368.5 -65.6 368 -62.2 L 368 -62.2 L 364.6 -41.8 L 351.4 -40.5 L 357.9 -74.5 L 368.5 -75.7 L 367.3 -69.3 L 367.3 -69.3 Q 370.5 -75.7 377.5 -75.7 L 377.5 -75.7 L 377.5 -75.7 Q 381.2 -75.7 383.2 -73.8 L 383.2 -73.8 L 383.2 -73.8 Q 385.2 -71.9 385.2 -68 L 385.2 -68 L 385.2 -68 Q 385.2 -64 382.6 -61.5 L 382.6 -61.5 L 382.6 -61.5 Q 380.1 -59 375.6 -59 L 375.6 -59 L 375.6 -59 Q 373.7 -59 373 -59.8 Z M 406.6 -49.1 L 406.6 -49.1 L 406.6 -49.1 Q 403.3 -45.6 397.2 -45.6 L 397.2 -45.6 L 397.2 -45.6 Q 389.6 -45.6 388 -51.2 L 388 -51.2 L 388 -51.2 Q 387.5 -52.8 387.5 -54.7 L 387.5 -54.7 L 387.5 -54.7 Q 387.5 -56.5 387.9 -58.5 L 387.9 -58.5 L 390.9 -74.5 L 403.9 -75.7 L 400.3 -57.1 L 400.3 -57.1 Q 400.2 -56.3 400 -55.4 L 400 -55.4 L 400 -55.4 Q 399.8 -54.5 399.8 -53.6 L 399.8 -53.6 L 399.8 -53.6 Q 399.8 -52.6 400.2 -52 L 400.2 -52 L 400.2 -52 Q 400.5 -51.4 400.9 -51 L 400.9 -51 L 400.9 -51 Q 401.7 -50.5 403.1 -50.5 L 403.1 -50.5 L 403.1 -50.5 Q 404.4 -50.5 405.6 -52.2 L 405.6 -52.2 L 405.6 -52.2 Q 406.8 -53.9 407.4 -56.7 L 407.4 -56.7 L 410.9 -74.5 L 423.5 -75.7 L 418.7 -50.6 L 418.7 -50.6 Q 416.3 -38.3 411.5 -33.4 L 411.5 -33.4 L 411.5 -33.4 Q 409 -30.9 405.8 -30 L 405.8 -30 L 405.8 -30 Q 402.5 -29 398.4 -29 L 398.4 -29 L 398.4 -29 Q 391.6 -29 387.8 -31.1 L 387.8 -31.1 L 387.8 -31.1 Q 384 -33.2 384 -36.7 L 384 -36.7 L 384 -36.7 Q 384 -39.3 385.9 -40.8 L 385.9 -40.8 L 385.9 -40.8 Q 387.9 -42.3 391 -42.3 L 391 -42.3 L 391 -42.3 Q 393.7 -42.3 395.7 -41.2 L 395.7 -41.2 L 395.7 -41.2 Q 397 -40.5 397.5 -39.6 L 397.5 -39.6 L 397.5 -39.6 Q 396.1 -38.3 396.1 -36.2 L 396.1 -36.2 L 396.1 -36.2 Q 396.1 -33.4 398.6 -33.4 L 398.6 -33.4 L 398.6 -33.4 Q 402.8 -33.4 405.3 -43.1 L 405.3 -43.1 L 405.3 -43.1 Q 406 -46 406.6 -49.1 Z" fill="url(#editing-gradient-gradient)"></path></g></g><style>text {
  font-size: 64px;
  font-family: Arial Black;
  dominant-baseline: central;
  text-anchor: middle;
}</style></svg>